0
SECTION
2
HEADER
9
$ACADVER
1
AC1009
9
$INSUNITS
70
4
0
ENDSEC
0
SECTION
2
TABLES
0
TABLE
2
LAYER
70
6
0
LAYER
2
A-WALL
70
0
62
5
6
CONTINUOUS
0
LAYER
2
A-DOOR
70
0
62
3
6
CONTINUOUS
0
LAYER
2
A-GLAZ
70
0
62
4
6
CONTINUOUS
0
LAYER
2
A-DIMS
70
0
62
1
6
CONTINUOUS
0
LAYER
2
A-ANNO
70
0
62
7
6
CONTINUOUS
0
LAYER
2
A-FURN
70
0
62
8
6
CONTINUOUS
0
ENDTAB
0
ENDSEC
0
SECTION
2
ENTITIES
0
LINE
8
A-WALL
10
0
20
0.125
30
0
11
12
21
0.125
31
0
0
LINE
8
A-WALL
10
0
20
-0.125
30
0
11
12
21
-0.125
31
0
0
LINE
8
A-WALL
10
11.875
20
0
30
0
11
11.875
21
9
31
0
0
LINE
8
A-WALL
10
12.125
20
0
30
0
11
12.125
21
9
31
0
0
LINE
8
A-WALL
10
12
20
8.875
30
0
11
0
21
8.875
31
0
0
LINE
8
A-WALL
10
12
20
9.125
30
0
11
0
21
9.125
31
0
0
LINE
8
A-WALL
10
0.125
20
9
30
0
11
0.125
21
0
31
0
0
LINE
8
A-WALL
10
-0.125
20
9
30
0
11
-0.125
21
0
31
0
0
LINE
8
A-WALL
10
4.9
20
0
30
0
11
4.9
21
5.4
31
0
0
LINE
8
A-WALL
10
5.1
20
0
30
0
11
5.1
21
5.4
31
0
0
LINE
8
A-WALL
10
5
20
5.5
30
0
11
12
21
5.5
31
0
0
LINE
8
A-WALL
10
5
20
5.3
30
0
11
12
21
5.3
31
0
0
LINE
8
A-WALL
10
8.3
20
5.4
30
0
11
8.3
21
9
31
0
0
LINE
8
A-WALL
10
8.5
20
5.4
30
0
11
8.5
21
9
31
0
0
LINE
8
A-WALL
10
0
20
5.5
30
0
11
5
21
5.5
31
0
0
LINE
8
A-WALL
10
0
20
5.3
30
0
11
5
21
5.3
31
0
0
ARC
8
A-DOOR
10
4.1
20
0.9
30
0
40
0.85
50
0
51
90
0
LINE
8
A-DOOR
10
4.1
20
0.9
30
0
11
4.95
21
0.9
31
0
0
ARC
8
A-DOOR
10
5.9
20
4.6
30
0
40
0.85
50
90
51
180
0
LINE
8
A-DOOR
10
5.9
20
4.6
30
0
11
5.9
21
5.45
31
0
0
ARC
8
A-DOOR
10
8.4
20
6.3
30
0
40
0.85
50
180
51
270
0
LINE
8
A-DOOR
10
8.4
20
6.3
30
0
11
7.55
21
6.3
31
0
0
ARC
8
A-DOOR
10
2.2
20
5.4
30
0
40
0.85
50
270
51
360
0
LINE
8
A-DOOR
10
2.2
20
5.4
30
0
11
2.2
21
4.55
31
0
0
LINE
8
A-GLAZ
10
1.2
20
9
30
0
11
3.4
21
9
31
0
0
LINE
8
A-GLAZ
10
7
20
9
30
0
11
9.6
21
9
31
0
0
LINE
8
A-GLAZ
10
12
20
1.4
30
0
11
12
21
3.6
31
0
0
LINE
8
A-GLAZ
10
0
20
6.4
30
0
11
0
21
8.2
31
0
0
LWPOLYLINE
8
A-FURN
90
4
70
1
10
9
20
6.2
10
11
20
6.2
10
11
20
7.8
10
9
20
7.8
0
LWPOLYLINE
8
A-FURN
90
4
70
1
10
0.4
20
0.4
10
2.6
20
0.4
10
2.6
20
1.1
10
0.4
20
1.1
0
CIRCLE
8
A-FURN
10
3
20
2.6
30
0
40
0.6
0
LWPOLYLINE
8
A-FURN
90
4
70
1
10
6
20
0.4
10
8.4
20
0.4
10
8.4
20
1.3
10
6
20
1.3
0
TEXT
8
A-ANNO
10
1.6
20
2.6
30
0
40
0.28
1
KITCHEN
50
0
0
TEXT
8
A-ANNO
10
6.4
20
2.6
30
0
40
0.28
1
LIVING
50
0
0
TEXT
8
A-ANNO
10
9.4
20
7
30
0
40
0.28
1
BEDROOM 1
50
0
0
TEXT
8
A-ANNO
10
6.2
20
7
30
0
40
0.28
1
BEDROOM 2
50
0
0
TEXT
8
A-ANNO
10
1.6
20
7
30
0
40
0.28
1
BATH
50
0
0
TEXT
8
A-ANNO
10
0.2
20
9.6
30
0
40
0.42
1
APARTMENT TYPE A - 108 m2
50
0
0
LINE
8
A-DIMS
10
0
20
-0.8
30
0
11
12
21
-0.8
31
0
0
LINE
8
A-DIMS
10
0
20
-0.95
30
0
11
0
21
-0.65
31
0
0
LINE
8
A-DIMS
10
12
20
-0.95
30
0
11
12
21
-0.65
31
0
0
TEXT
8
A-DIMS
10
5.65
20
-0.56
30
0
40
0.33
1
12000
50
0
0
LINE
8
A-DIMS
10
-0.8
20
0
30
0
11
-0.8
21
9
31
0
0
LINE
8
A-DIMS
10
-0.95
20
0
30
0
11
-0.65
21
0
31
0
0
LINE
8
A-DIMS
10
-0.95
20
9
30
0
11
-0.65
21
9
31
0
0
TEXT
8
A-DIMS
10
-0.56
20
4.5
30
0
40
0.33
1
9000
50
90
0
ENDSEC
0
EOF
